<svg version="1.1" id="Layer_1" xmlns="http://www.w3.org/2000/svg" xmlns:xlink="http://www.w3.org/1999/xlink" x="0px" y="0px"
	 width="100%" viewBox="0 0 740 632" enable-background="new 0 0 740 632" xml:space="preserve">
<path fill="none" opacity="1.000000" stroke="#000000" stroke-linecap="round" stroke-linejoin="round" stroke-width="7.000000"
	d="
M366.500000,200.500000 
	C369.127045,199.699432 371.827881,200.015335 374.500031,200.010986 
	C388.833313,199.987701 403.166870,199.951813 417.499939,200.016327 
	C427.674774,200.062134 435.432678,196.357910 439.523132,186.509613 
	C440.405243,184.385880 440.505829,182.223892 440.505035,180.000000 
	C440.496826,157.000000 440.488739,133.999985 440.504791,111.000000 
	C440.512634,99.796127 430.994537,92.075478 421.499847,92.045723 
	C385.333557,91.932388 349.163910,92.247681 313.001678,91.848167 
	C302.236908,91.729240 292.319122,99.912186 292.111816,112.001915 
	C291.723297,134.661926 291.525299,157.347488 292.200989,179.994003 
	C292.536926,191.252365 299.113739,198.733017 310.999420,199.509048 
	C327.325562,200.575043 343.667938,199.710617 359.999969,200.001328 
	C362.048004,200.037766 364.167603,199.661087 366.000000,201.000000 
"/>
<path fill="none" opacity="1.000000" stroke="#000000" stroke-linecap="round" stroke-linejoin="round" stroke-width="7.000000"
	d="
M283.500000,509.000000 
	C277.859253,510.612915 271.928772,510.844940 266.907990,514.885681 
	C259.608093,520.760681 254.549026,527.184204 252.704254,536.944092 
	C250.625031,547.944458 253.873672,556.866638 260.135376,564.894409 
	C266.233063,572.711914 275.017975,576.269897 284.998627,575.956360 
	C298.244843,575.540161 311.758636,566.722717 315.134949,549.526489 
	C317.335571,538.318359 314.605133,529.007385 307.518829,520.484375 
	C302.520782,514.472961 296.271729,510.843781 288.494415,510.055054 
	C286.929016,509.896271 285.711578,509.324707 284.500000,508.500000 
"/>
<path fill="none" opacity="1.000000" stroke="#000000" stroke-linecap="round" stroke-linejoin="round" stroke-width="7.000000"
	d="
M213.500000,286.500000 
	C205.378922,288.802673 197.650101,291.785400 193.016235,299.509735 
	C187.450577,308.787354 187.384583,318.752808 192.214157,327.886780 
	C196.979675,336.899536 205.143402,342.352356 215.987595,340.906891 
	C226.806137,339.464844 234.860458,332.264832 237.318954,320.960632 
	C239.856064,309.294952 236.461075,298.945679 226.478241,291.529297 
	C222.800156,288.796783 218.078659,288.386688 214.000000,286.500000 
"/>
<path fill="none" opacity="1.000000" stroke="#000000" stroke-linecap="round" stroke-linejoin="round" stroke-width="7.000000"
	d="
M520.000000,286.500000 
	C526.616272,288.943542 533.423889,290.780609 538.072693,296.945190 
	C544.016785,304.827484 546.508179,315.942444 540.495056,327.997528 
	C537.168640,334.666321 528.489563,342.393433 517.005005,340.959808 
	C507.019745,339.713348 499.605560,333.719879 496.031006,321.990540 
	C492.423676,310.153778 497.534637,296.238983 508.071930,290.123932 
	C511.445984,288.165894 515.666687,287.666656 519.500000,286.499969 
"/>
<path fill="none" opacity="1.000000" stroke="#000000" stroke-linecap="round" stroke-linejoin="round" stroke-width="7.000000"
	d="
M353.500000,125.000000 
	C352.833313,123.000000 352.085358,121.022911 351.514191,118.996002 
	C349.119934,110.499329 339.495728,105.754883 332.000946,106.509529 
	C324.519287,107.262840 316.396729,115.668877 315.500000,123.500000 
	C314.784332,129.749084 319.865509,138.459595 326.000000,141.500000 
	C332.852478,144.896271 340.620636,143.706757 346.053741,139.062897 
	C350.345886,135.394257 351.840363,130.466858 353.500000,125.500000 
"/>
<path fill="none" opacity="1.000000" stroke="#000000" stroke-linecap="round" stroke-linejoin="round" stroke-width="7.000000"
	d="
M382.000000,125.500000 
	C384.540588,129.809921 385.213531,134.960098 389.411652,138.601837 
	C397.407196,145.537659 408.149323,144.630325 414.426544,138.425690 
	C421.445099,131.488312 423.087738,121.822029 415.957123,113.536911 
	C404.696533,100.453148 389.121765,107.068382 384.141632,119.556480 
	C383.375732,121.477013 382.218781,123.114594 381.500000,125.000000 
"/>
<path fill="none" opacity="1.000000" stroke="#000000" stroke-linecap="round" stroke-linejoin="round" stroke-width="7.000000"
	d="
M366.500000,397.500000 
	C360.679810,403.139374 354.047882,407.669952 345.980194,408.866455 
	C338.405975,409.989777 330.655426,409.870667 323.003113,410.535858 
	C315.108246,411.222107 307.196472,411.824554 299.492523,413.973175 
	C290.401764,416.508514 284.027191,420.284241 284.476257,432.000916 
	C284.495148,432.493805 284.166687,433.000000 284.000031,433.500000 
"/>
<path fill="none" opacity="1.000000" stroke="#000000" stroke-linecap="round" stroke-linejoin="round" stroke-width="7.000000"
	d="
M445.500000,509.000000 
	C441.833344,509.833313 437.805969,509.964783 434.566559,511.629517 
	C424.196777,516.958557 417.091919,524.482300 414.733093,536.949524 
	C411.306915,555.058228 424.079193,570.740051 436.484039,574.552002 
	C455.709290,580.459778 474.260834,567.373108 476.997314,549.999573 
	C479.736603,532.608154 474.490448,521.411865 459.504700,512.492126 
	C455.484558,510.099304 450.726929,510.561859 446.500000,509.000000 
"/>
<path fill="none" opacity="1.000000" stroke="#000000" stroke-linecap="round" stroke-linejoin="round" stroke-width="7.000000"
	d="
M238.000000,240.500000 
	C236.145859,227.882996 221.681183,219.205795 208.483536,222.432678 
	C200.896774,224.287659 194.330933,227.232635 190.495041,234.497375 
	C187.912781,239.387894 188.430847,244.163635 191.555817,248.459396 
	C194.914520,253.076492 199.399399,256.821167 205.036133,257.789734 
	C208.418777,258.371002 211.318100,261.322113 214.993195,259.981354 
	C221.991821,257.428131 229.697937,256.358276 234.589142,249.564178 
	C236.532608,246.864639 237.941956,244.342255 237.500000,241.000000 
"/>
<path fill="none" opacity="1.000000" stroke="#000000" stroke-linecap="round" stroke-linejoin="round" stroke-width="7.000000"
	d="
M366.500000,248.000000 
	C359.090698,249.721451 351.528625,250.666763 344.466400,253.927216 
	C333.783020,258.859436 325.526276,266.239014 318.923065,275.947693 
	C311.362366,287.064148 308.063263,299.326385 306.332275,312.477936 
	C304.865143,323.625031 307.718384,333.846466 311.111053,343.962769 
	C316.302765,359.443512 326.204834,371.415894 340.517334,379.469177 
	C348.401611,383.905426 357.165863,385.919678 366.018951,386.812103 
	C370.242157,387.237823 374.787659,386.098846 378.979126,384.925415 
	C397.451630,379.753937 410.437225,367.937195 418.994873,350.997406 
	C423.521149,342.037720 425.907715,332.437988 426.440796,322.496826 
	C427.849182,296.233704 418.670227,274.401276 397.369171,258.677246 
	C389.819214,253.104004 380.648407,249.844727 370.994659,249.066406 
	C369.526886,248.948074 368.292419,248.496964 367.000000,248.000000 
"/>
<path fill="none" opacity="1.000000" stroke="#000000" stroke-linecap="round" stroke-linejoin="round" stroke-width="7.000000"
	d="
M366.500000,387.500000 
	C366.500000,388.333344 366.603607,389.181854 366.483948,389.997650 
	C365.306152,398.026703 370.217651,401.799408 376.463928,405.068909 
	C383.277100,408.635162 390.632080,409.162079 397.998047,410.016754 
	C409.707062,411.375397 421.690552,411.379700 432.953552,415.139191 
	C440.889984,417.788330 446.297577,422.290680 446.000000,434.500000 
"/>
<path fill="none" opacity="1.000000" stroke="#000000" stroke-linecap="round" stroke-linejoin="round" stroke-width="7.000000"
	d="
M324.500000,167.500000 
	C327.119080,165.880630 329.392212,166.672394 332.040619,167.913300 
	C339.872467,171.582947 347.239990,176.097916 355.385406,179.292236 
	C361.685181,181.762787 367.085907,181.484253 373.004181,179.512589 
	C381.764526,176.594116 389.734772,171.983307 398.026886,168.056763 
	C399.654449,167.286072 401.521210,166.066498 403.500000,167.500000 
"/>
<path fill="none" opacity="1.000000" stroke="#000000" stroke-linecap="round" stroke-linejoin="round" stroke-width="7.000000"
	d="
M493.500000,314.500000 
	C485.285370,313.658447 477.153870,314.657318 468.995880,315.457947 
	C461.848969,316.159363 454.672180,316.611053 447.498383,316.967133 
	C441.006104,317.289337 434.500000,317.333313 428.000000,317.499969 
"/>
<path fill="none" opacity="1.000000" stroke="#000000" stroke-linecap="round" stroke-linejoin="round" stroke-width="7.000000"
	d="
M304.500000,317.500000 
	C290.311523,317.296600 276.118927,316.889435 262.009918,315.405609 
	C254.331238,314.597992 246.710968,313.814362 239.000000,314.500000 
"/>
<path fill="none" opacity="1.000000" stroke="#000000" stroke-linecap="round" stroke-linejoin="round" stroke-width="7.000000"
	d="
M519.000000,222.000000 
	C510.644958,222.487732 503.276245,225.091980 498.010742,232.008163 
	C493.857971,237.462738 493.696777,243.368774 497.999481,249.000381 
	C502.667053,255.109589 509.225616,257.435608 516.471802,259.121155 
	C526.126221,261.366882 541.076477,252.845490 543.591980,243.524826 
	C545.816223,235.283447 538.278198,226.845062 530.450989,224.141922 
	C527.171875,223.009476 523.769653,221.251068 520.000000,222.000000 
"/>
<path fill="none" opacity="1.000000" stroke="#000000" stroke-linecap="round" stroke-linejoin="round" stroke-width="7.000000"
	d="
M284.500000,433.500000 
	C287.375214,435.615265 290.991943,436.012604 294.063049,437.897247 
	C301.461090,442.437195 306.277283,451.379364 305.000000,459.500000 
	C303.717194,467.655823 296.258453,476.279999 289.000000,478.000000 
	C279.885620,480.159821 272.048676,476.212311 266.427795,467.546844 
	C260.652039,458.642700 262.860962,449.730255 268.011353,443.008698 
	C271.923615,437.903076 277.551208,435.653015 283.500000,434.000000 
"/>
<path fill="none" opacity="1.000000" stroke="#000000" stroke-linecap="round" stroke-linejoin="round" stroke-width="7.000000"
	d="
M445.500000,435.000000 
	C437.943634,436.487244 432.060211,440.003052 427.892700,446.935486 
	C420.835785,458.674286 427.417816,473.075745 439.537476,477.906006 
	C442.289886,479.002991 444.930634,480.898651 448.537140,479.603424 
	C455.361816,477.152435 461.033142,473.591522 464.510376,467.005493 
	C470.763489,455.161896 464.511566,440.444885 451.499817,436.500610 
	C449.834595,435.995880 448.166656,435.500000 446.500000,435.000000 
"/>
<path fill="none" opacity="1.000000" stroke="#000000" stroke-linecap="round" stroke-linejoin="round" stroke-width="7.000000"
	d="
M366.000000,201.500000 
	C366.000000,213.833328 365.968231,226.166809 366.022797,238.499893 
	C366.036102,241.500580 366.333344,244.500000 366.500000,247.500000 
"/>
<path fill="none" opacity="1.000000" stroke="#000000" stroke-linecap="round" stroke-linejoin="round" stroke-width="7.000000"
	d="
M446.000000,481.000000 
	C446.000000,490.166656 446.000000,499.333344 446.000000,508.500000 
"/>
<path fill="none" opacity="1.000000" stroke="#000000" stroke-linecap="round" stroke-linejoin="round" stroke-width="7.000000"
	d="
M381.000000,125.000000 
	C372.001648,125.255180 362.983429,124.439232 354.000000,125.500000 
"/>
<path fill="none" opacity="1.000000" stroke="#000000" stroke-linecap="round" stroke-linejoin="round" stroke-width="8.000000"
	d="
M520.000000,261.000000 
	C518.892639,269.314514 519.790649,277.669159 519.500000,286.000000 
"/>
<path fill="none" opacity="1.000000" stroke="#000000" stroke-linecap="round" stroke-linejoin="round" stroke-width="8.000000"
	d="
M213.500000,261.000000 
	C213.500000,269.333344 213.500000,277.666656 213.500000,286.000000 
"/>
<path fill="none" opacity="1.000000" stroke="#000000" stroke-linecap="round" stroke-linejoin="round" stroke-width="7.000000"
	d="
M284.000000,480.000000 
	C284.000000,489.500000 284.000000,499.000000 284.000000,508.500000 
"/>
<path fill="none" opacity="1.000000" stroke="#000000" stroke-linecap="round" stroke-linejoin="round" stroke-width="6.000000"
	d="
M10.000000,9.000000 
	C9.205743,9.715512 7.354176,9.046022 7.483258,11.001105 
	C7.570908,12.328651 7.500000,13.666667 7.500000,15.000000 
	C7.500000,216.666672 7.499319,418.333344 7.509840,620.000000 
	C7.509944,622.007263 7.200928,624.052673 8.148328,626.250000 
	C251.999863,626.250000 495.999878,626.250000 740.250000,626.250000 
	C740.250000,420.666931 740.250000,215.083466 740.250000,9.000000 
	C497.166901,9.000000 253.833450,9.000000 10.500000,9.000000 
"/>
</svg>